<svg xmlns="http://www.w3.org/2000/svg" viewBox="0 0 512 512">
  <defs>
    <linearGradient id="mwGrad" x1="0%" y1="0%" x2="100%" y2="0%">
      <stop offset="0%" style="stop-color:#61CBF5"/>
      <stop offset="27%" style="stop-color:#1E76BB"/>
      <stop offset="38%" style="stop-color:#2A3B8F"/>
      <stop offset="100%" style="stop-color:#010101"/>
    </linearGradient>
  </defs>
  <rect width="512" height="512" rx="80" fill="#ffffff"/>
  <path fill="url(#mwGrad)" d="M420 120L380 240L340 120C336 108 324 100 310 100C296 100 284 108 280 120L240 240L200 120C196 108 184 100 170 100C156 100 144 108 140 120L100 240L92 120C88 108 76 100 62 100C48 100 36 108 36 120L60 350C62 364 74 376 90 380C106 384 122 376 128 362L168 242L208 362C214 376 230 384 246 380C262 376 274 364 276 350L280 240L320 362C326 376 342 384 358 380C374 376 386 364 388 350L392 240L432 362C438 376 454 384 470 380C486 376 498 364 500 350L476 120C472 108 460 100 446 100C432 100 424 108 420 120Z" transform="translate(6, 66) scale(0.5)"/>
  <text x="256" y="380" font-family="Arial, sans-serif" font-size="160" font-weight="bold" text-anchor="middle" fill="url(#mwGrad)">MW</text>
</svg>
